<?xml version="1.0" encoding="utf-8"?>
<!-- Generator: Adobe Illustrator 25.4.1, SVG Export Plug-In . SVG Version: 6.00 Build 0)  -->
<svg version="1.1" id="Calque_1" xmlns="http://www.w3.org/2000/svg" xmlns:xlink="http://www.w3.org/1999/xlink" x="0px" y="0px"
	 width="75.1px" height="81.4px" viewBox="0 0 75.1 81.4" style="enable-background:new 0 0 75.1 81.4;" xml:space="preserve">
<style type="text/css">
	.st0{fill:#FFFFFF;}
</style>
<rect y="0.7" width="75.1" height="80.1"/>
<g>
	<path class="st0" d="M26,36.1c-1.9,0-3.7-0.5-5.3-1.4c-1.6-0.9-2.9-2.2-3.8-3.8c-0.9-1.6-1.4-3.4-1.4-5.3c0-1.9,0.5-3.7,1.4-5.3
		c0.9-1.6,2.2-2.9,3.8-3.8C22.3,15.5,24,15,26,15c1.3,0,2.6,0.2,3.7,0.7c1.2,0.4,2.2,1.1,3.2,1.9l-1.3,1.8c-0.8-0.6-1.6-1.1-2.6-1.5
		c-1-0.4-2-0.6-3-0.6c-1.5,0-2.8,0.4-4,1.1c-1.2,0.7-2.2,1.7-2.9,3c-0.7,1.3-1.1,2.7-1.1,4.2c0,1.5,0.4,2.9,1.1,4.2
		c0.7,1.3,1.7,2.2,2.9,3c1.2,0.7,2.6,1.1,4,1.1c1,0,2-0.2,3-0.5c0.9-0.4,1.8-0.9,2.7-1.6l1.3,1.8c-1,0.8-2,1.4-3.2,1.9
		C28.5,35.8,27.3,36.1,26,36.1z"/>
	<path class="st0" d="M48.3,36.1c-1.9,0-3.7-0.5-5.3-1.4c-1.6-0.9-2.9-2.2-3.8-3.8c-0.9-1.6-1.4-3.4-1.4-5.3c0-1.9,0.5-3.7,1.4-5.3
		c0.9-1.6,2.2-2.9,3.8-3.8c1.6-0.9,3.4-1.4,5.3-1.4c1.9,0,3.7,0.5,5.3,1.4c1.6,0.9,2.9,2.2,3.8,3.8c0.9,1.6,1.4,3.4,1.4,5.3
		c0,1.9-0.5,3.7-1.4,5.3c-0.9,1.6-2.2,2.9-3.8,3.8C52,35.6,50.2,36.1,48.3,36.1z M48.3,33.8c1.5,0,2.8-0.4,4-1.1s2.2-1.7,2.9-3
		c0.7-1.3,1.1-2.6,1.1-4.2c0-1.5-0.4-2.9-1.1-4.2c-0.7-1.3-1.7-2.3-2.9-3s-2.6-1.1-4-1.1c-1.5,0-2.8,0.4-4,1.1
		c-1.2,0.7-2.2,1.7-2.9,3c-0.7,1.3-1.1,2.7-1.1,4.2c0,1.5,0.4,2.9,1.1,4.2c0.7,1.3,1.7,2.2,2.9,3C45.5,33.4,46.8,33.8,48.3,33.8z"/>
	<path class="st0" d="M16.9,63.7V43.4h7c1.9,0,3.7,0.5,5.3,1.4c1.6,0.9,2.9,2.1,3.8,3.7c0.9,1.6,1.4,3.3,1.4,5.2
		c0,1.9-0.5,3.6-1.4,5.1c-0.9,1.6-2.2,2.8-3.8,3.7c-1.6,0.9-3.4,1.3-5.3,1.3H16.9z M24,61.5c1.5,0,2.8-0.4,4-1.1
		c1.2-0.7,2.2-1.7,2.9-2.9c0.7-1.2,1.1-2.5,1.1-4c0-1.5-0.4-2.8-1.1-4c-0.7-1.2-1.7-2.2-2.9-2.9c-1.2-0.7-2.6-1.1-4.1-1.1h-4.6v15.9
		H24z"/>
	<path class="st0" d="M41.7,63.7V43.4h14.2v2.3H44v6.6h9.7v2.2H44v7h12v2.3H41.7z M49.2,41.8l2.8-3.1h-2.6l-2,3.1H49.2z"/>
</g>
</svg>
