<?xml version="1.0" encoding="utf-8"?>
<!-- Generator: Adobe Illustrator 25.4.1, SVG Export Plug-In . SVG Version: 6.00 Build 0)  -->
<svg version="1.1" id="Calque_1" xmlns="http://www.w3.org/2000/svg" xmlns:xlink="http://www.w3.org/1999/xlink" x="0px" y="0px"
	 width="517.2px" height="201.2px" viewBox="0 0 517.2 201.2" style="enable-background:new 0 0 517.2 201.2;" xml:space="preserve"
	>
<style type="text/css">
	.st0{fill:#FFFFFF;}
</style>
<g>
	<path d="M64.3,150.4c-3.2,0-6.2-0.8-8.9-2.4c-2.7-1.6-4.8-3.7-6.4-6.4c-1.6-2.7-2.4-5.7-2.4-9c0-3.3,0.8-6.2,2.4-9
		c1.6-2.7,3.7-4.9,6.4-6.4c2.7-1.6,5.7-2.3,8.9-2.3c2.2,0,4.3,0.4,6.3,1.1c2,0.8,3.7,1.8,5.3,3.2l-2.2,3c-1.3-1.1-2.7-1.9-4.4-2.5
		c-1.6-0.6-3.3-0.9-5.1-0.9c-2.5,0-4.7,0.6-6.8,1.8c-2.1,1.2-3.7,2.9-4.9,5s-1.8,4.5-1.8,7c0,2.6,0.6,4.9,1.8,7s2.9,3.8,4.9,5
		s4.3,1.8,6.8,1.8c1.7,0,3.4-0.3,5-0.9c1.6-0.6,3.1-1.5,4.5-2.7l2.2,3.1c-1.6,1.4-3.4,2.4-5.4,3.2C68.6,150,66.5,150.4,64.3,150.4z"
		/>
	<path d="M97,150.4c-3.2,0-6.2-0.8-8.9-2.4c-2.7-1.6-4.8-3.7-6.4-6.4c-1.6-2.7-2.4-5.7-2.4-9c0-3.3,0.8-6.2,2.4-9
		c1.6-2.7,3.7-4.9,6.4-6.4c2.7-1.6,5.7-2.3,8.9-2.3s6.2,0.8,8.9,2.3c2.7,1.6,4.8,3.7,6.4,6.4c1.6,2.7,2.3,5.7,2.3,9
		c0,3.3-0.8,6.2-2.3,9c-1.6,2.7-3.7,4.9-6.4,6.4C103.2,149.6,100.2,150.4,97,150.4z M97,146.5c2.5,0,4.7-0.6,6.8-1.8
		c2.1-1.2,3.7-2.9,5-5c1.2-2.1,1.8-4.4,1.8-7c0-2.6-0.6-4.9-1.8-7c-1.2-2.1-2.9-3.8-5-5c-2.1-1.2-4.4-1.8-6.8-1.8s-4.7,0.6-6.8,1.8
		c-2.1,1.2-3.7,2.9-4.9,5s-1.8,4.5-1.8,7c0,2.6,0.6,4.9,1.8,7s2.9,3.8,4.9,5S94.5,146.5,97,146.5z"/>
	<path d="M118.9,149.8l3.9-34.3h4.5l10.8,28.6l10.7-28.6h4.4l3.9,34.3h-3.9l-2.9-28l-10.6,28h-3.4l-10.5-28l-3,28H118.9z"/>
	<path d="M162.2,149.8l3.9-34.3h4.5l10.8,28.6l10.7-28.6h4.4l3.9,34.3h-3.9l-2.9-28l-10.6,28h-3.4l-10.5-28l-3,28H162.2z"/>
	<path d="M220.5,150.5c-2.9,0-5.5-0.7-7.6-2.1c-2.1-1.4-3.7-3.2-4.8-5.6c-1.1-2.4-1.6-5-1.6-8v-19.4h4v19.1c0,2.3,0.4,4.4,1.2,6.2
		c0.8,1.8,1.9,3.3,3.4,4.3c1.5,1.1,3.3,1.6,5.5,1.6c2.1,0,4-0.5,5.5-1.6c1.5-1,2.6-2.5,3.4-4.3c0.8-1.8,1.2-3.9,1.2-6.2v-19.1h4
		v19.4c0,3-0.6,5.6-1.7,8c-1.1,2.4-2.7,4.2-4.8,5.6S223.4,150.5,220.5,150.5z"/>
	<path d="M243.3,149.8v-34.3h4.1l20.7,27.8v-27.8h4v34.3h-4l-20.8-28v28H243.3z"/>
	<path d="M281.9,149.8v-34.3h4v34.3H281.9z"/>
	<path d="M310.9,150.4c-3.2,0-6.2-0.8-8.9-2.4c-2.7-1.6-4.8-3.7-6.4-6.4s-2.4-5.7-2.4-9c0-3.3,0.8-6.2,2.4-9
		c1.6-2.7,3.7-4.9,6.4-6.4c2.7-1.6,5.7-2.3,8.9-2.3c2.2,0,4.3,0.4,6.3,1.1c2,0.8,3.7,1.8,5.3,3.2l-2.2,3c-1.3-1.1-2.8-1.9-4.4-2.5
		c-1.6-0.6-3.3-0.9-5.1-0.9c-2.5,0-4.7,0.6-6.8,1.8c-2.1,1.2-3.7,2.9-4.9,5c-1.2,2.1-1.8,4.5-1.8,7c0,2.6,0.6,4.9,1.8,7
		c1.2,2.1,2.9,3.8,4.9,5c2.1,1.2,4.3,1.8,6.8,1.8c1.7,0,3.4-0.3,5-0.9c1.6-0.6,3.1-1.5,4.5-2.7l2.2,3.1c-1.6,1.4-3.4,2.4-5.4,3.2
		C315.2,150,313.1,150.4,310.9,150.4z"/>
	<path d="M324.9,149.8l13.8-34.4h3.7l13.8,34.4H352l-11.3-28.9l-0.2-0.7h0l-0.2,0.7l-11.2,28.9H324.9z M331.6,141.8l1.2-3.8h15.5
		l1.3,3.8H331.6z"/>
	<path d="M366.4,149.8v-30.5h-11.1v-3.9h26.3v3.9h-11.1v30.5H366.4z"/>
	<path d="M387.7,149.8v-34.3h4v34.3H387.7z"/>
	<path d="M416.7,150.4c-3.2,0-6.2-0.8-8.9-2.4c-2.7-1.6-4.8-3.7-6.4-6.4s-2.4-5.7-2.4-9c0-3.3,0.8-6.2,2.4-9
		c1.6-2.7,3.7-4.9,6.4-6.4c2.7-1.6,5.7-2.3,8.9-2.3s6.2,0.8,8.9,2.3c2.7,1.6,4.8,3.7,6.4,6.4c1.6,2.7,2.3,5.7,2.3,9
		c0,3.3-0.8,6.2-2.3,9s-3.7,4.9-6.4,6.4C423,149.6,420,150.4,416.7,150.4z M416.7,146.5c2.5,0,4.7-0.6,6.8-1.8s3.7-2.9,5-5
		c1.2-2.1,1.8-4.4,1.8-7c0-2.6-0.6-4.9-1.8-7c-1.2-2.1-2.9-3.8-5-5c-2.1-1.2-4.4-1.8-6.8-1.8s-4.7,0.6-6.8,1.8
		c-2.1,1.2-3.7,2.9-4.9,5c-1.2,2.1-1.8,4.5-1.8,7c0,2.6,0.6,4.9,1.8,7c1.2,2.1,2.9,3.8,4.9,5C412,145.9,414.3,146.5,416.7,146.5z"/>
	<path d="M441.8,149.8v-34.3h4.1l20.7,27.8v-27.8h4v34.3h-4l-20.8-28v28H441.8z"/>
	<path d="M85.8,196.3c-2.5,0-4.7-0.5-6.7-1.7c-2-1.1-3.6-2.6-4.8-4.5c-1.2-1.9-1.7-4-1.7-6.3c0-1.9,0.4-3.8,1.2-5.5
		c0.8-1.8,2-3.2,3.6-4.4c1.6-1.2,3.5-1.9,5.6-2.1l1.7,3.6c-1.9,0-3.4,0.3-4.6,1s-2.1,1.6-2.7,2.8c-0.6,1.2-0.9,2.6-0.9,4.2
		c0,1.7,0.4,3.2,1.3,4.6c0.8,1.3,1.9,2.4,3.3,3.1s2.8,1.1,4.4,1.1c2.2,0,4.2-0.6,5.9-1.8c1.7-1.2,3-3,4-5.3s1.4-5,1.3-8.2l4,0
		c0,3.9-0.6,7.3-1.8,10.2c-1.2,2.9-3,5.2-5.2,6.8C91.4,195.5,88.8,196.3,85.8,196.3z M99.3,195.7l-23.7-31v-3.3h20.9v3.8H81.1
		l23,30.6H99.3z"/>
	<path d="M122.3,195.7v-34.3h11.8c3.2,0,6.2,0.8,8.9,2.3c2.7,1.5,4.9,3.6,6.4,6.2c1.6,2.6,2.4,5.5,2.4,8.7c0,3.2-0.8,6-2.4,8.7
		c-1.6,2.6-3.7,4.7-6.4,6.2c-2.7,1.5-5.7,2.3-8.9,2.3H122.3z M134.3,191.9c2.5,0,4.8-0.6,6.8-1.8c2.1-1.2,3.7-2.8,4.9-4.8
		c1.2-2,1.8-4.3,1.8-6.8c0-2.5-0.6-4.7-1.8-6.8s-2.8-3.7-4.9-4.9s-4.4-1.8-6.9-1.8h-7.8v26.8H134.3z"/>
	<path d="M159.2,195.7v-34.3h24v3.9h-20v11.1h16.3v3.8h-16.3v11.7h20.3v3.9H159.2z M171.9,158.7l4.7-5.2h-4.4l-3.4,5.2H171.9z"/>
	<path d="M188.5,195.7l3.9-34.3h4.5l10.8,28.6l10.7-28.6h4.4l3.9,34.3h-3.9l-2.9-28l-10.6,28h-3.4l-10.5-28l-3,28H188.5z"/>
	<path d="M248.6,196.2c-3.2,0-6.2-0.8-8.9-2.4c-2.7-1.6-4.8-3.7-6.4-6.4s-2.4-5.7-2.4-9s0.8-6.2,2.4-9s3.7-4.9,6.4-6.4
		c2.7-1.6,5.7-2.3,8.9-2.3s6.2,0.8,8.9,2.3c2.7,1.6,4.8,3.7,6.4,6.4s2.3,5.7,2.3,9s-0.8,6.2-2.3,9s-3.7,4.9-6.4,6.4
		C254.8,195.4,251.8,196.2,248.6,196.2z M248.6,192.3c2.5,0,4.7-0.6,6.8-1.8s3.7-2.9,5-5c1.2-2.1,1.8-4.4,1.8-7c0-2.6-0.6-4.9-1.8-7
		c-1.2-2.1-2.9-3.8-5-5s-4.4-1.8-6.8-1.8s-4.7,0.6-6.8,1.8c-2.1,1.2-3.7,2.9-4.9,5c-1.2,2.1-1.8,4.5-1.8,7c0,2.6,0.6,4.9,1.8,7
		c1.2,2.1,2.9,3.8,4.9,5C243.9,191.7,246.1,192.3,248.6,192.3z"/>
	<path d="M288.8,196.2c-3.2,0-6.2-0.8-8.9-2.4c-2.7-1.6-4.8-3.7-6.4-6.4s-2.4-5.7-2.4-9s0.8-6.2,2.4-9s3.7-4.9,6.4-6.4
		c2.7-1.6,5.7-2.3,8.9-2.3c2.2,0,4.3,0.4,6.3,1.1c2,0.8,3.7,1.8,5.3,3.2l-2.2,3c-1.3-1.1-2.8-1.9-4.4-2.5c-1.6-0.6-3.3-0.9-5.1-0.9
		c-2.5,0-4.7,0.6-6.8,1.8c-2.1,1.2-3.7,2.9-4.9,5c-1.2,2.1-1.8,4.5-1.8,7c0,2.6,0.6,4.9,1.8,7c1.2,2.1,2.9,3.8,4.9,5
		c2.1,1.2,4.3,1.8,6.8,1.8c1.7,0,3.4-0.3,5-0.9c1.6-0.6,3.1-1.5,4.5-2.7l2.2,3.1c-1.6,1.4-3.4,2.4-5.4,3.2
		C293.1,195.8,291,196.2,288.8,196.2z"/>
	<path d="M307.1,195.7v-34.3h13.4c2.3,0,4.3,0.5,6,1.4c1.7,0.9,3.1,2.2,4,3.9c0.9,1.7,1.4,3.6,1.4,5.8c0,2.3-0.5,4.4-1.6,6
		s-2.5,2.9-4.4,3.8c-1.9,0.8-4,1.3-6.4,1.3h-8.4v12.2H307.1z M320.1,179.7c1.6,0,2.9-0.3,4.1-0.9s2.1-1.4,2.7-2.5
		c0.6-1.1,0.9-2.4,0.9-3.9c0-1.5-0.3-2.7-1-3.8c-0.6-1.1-1.5-1.9-2.7-2.5c-1.2-0.6-2.5-0.9-4-0.9h-9v14.5H320.1z M327.5,195.7
		l-6.4-14.1l3.9-0.9l7,14.9H327.5z"/>
	<path d="M334.7,195.7l13.8-34.4h3.7l13.8,34.4h-4.2l-11.3-28.9l-0.2-0.7h0l-0.2,0.7l-11.2,28.9H334.7z M341.3,187.7l1.2-3.8h15.5
		l1.3,3.8H341.3z"/>
	<path d="M376.2,195.7v-30.5h-11.1v-3.9h26.3v3.9h-11.1v30.5H376.2z"/>
	<path d="M397.5,195.7v-34.3h4v34.3H397.5z"/>
	<path d="M411.3,195.7v-34.3h24v3.9h-20v11.1h16.3v3.8h-16.3v11.7h20.3v3.9H411.3z"/>
</g>
<g>
	<rect x="221" y="0.7" width="75.1" height="80.1"/>
	<g>
		<path class="st0" d="M247,36.1c-1.9,0-3.7-0.5-5.3-1.4c-1.6-0.9-2.9-2.2-3.8-3.8c-0.9-1.6-1.4-3.4-1.4-5.3c0-1.9,0.5-3.7,1.4-5.3
			c0.9-1.6,2.2-2.9,3.8-3.8c1.6-0.9,3.4-1.4,5.3-1.4c1.3,0,2.6,0.2,3.7,0.7c1.2,0.4,2.2,1.1,3.2,1.9l-1.3,1.8
			c-0.8-0.6-1.6-1.1-2.6-1.5c-1-0.4-2-0.6-3-0.6c-1.5,0-2.8,0.4-4,1.1c-1.2,0.7-2.2,1.7-2.9,3c-0.7,1.3-1.1,2.7-1.1,4.2
			c0,1.5,0.4,2.9,1.1,4.2c0.7,1.3,1.7,2.2,2.9,3c1.2,0.7,2.6,1.1,4,1.1c1,0,2-0.2,3-0.5c0.9-0.4,1.8-0.9,2.7-1.6l1.3,1.8
			c-1,0.8-2,1.4-3.2,1.9C249.5,35.8,248.3,36.1,247,36.1z"/>
		<path class="st0" d="M269.3,36.1c-1.9,0-3.7-0.5-5.3-1.4c-1.6-0.9-2.9-2.2-3.8-3.8c-0.9-1.6-1.4-3.4-1.4-5.3
			c0-1.9,0.5-3.7,1.4-5.3c0.9-1.6,2.2-2.9,3.8-3.8c1.6-0.9,3.4-1.4,5.3-1.4c1.9,0,3.7,0.5,5.3,1.4c1.6,0.9,2.9,2.2,3.8,3.8
			c0.9,1.6,1.4,3.4,1.4,5.3c0,1.9-0.5,3.7-1.4,5.3c-0.9,1.6-2.2,2.9-3.8,3.8C273,35.6,271.2,36.1,269.3,36.1z M269.3,33.8
			c1.5,0,2.8-0.4,4-1.1s2.2-1.7,2.9-3c0.7-1.3,1.1-2.6,1.1-4.2c0-1.5-0.4-2.9-1.1-4.2c-0.7-1.3-1.7-2.3-2.9-3s-2.6-1.1-4-1.1
			c-1.5,0-2.8,0.4-4,1.1c-1.2,0.7-2.2,1.7-2.9,3c-0.7,1.3-1.1,2.7-1.1,4.2c0,1.5,0.4,2.9,1.1,4.2c0.7,1.3,1.7,2.2,2.9,3
			C266.5,33.4,267.8,33.8,269.3,33.8z"/>
		<path class="st0" d="M237.9,63.7V43.4h7c1.9,0,3.7,0.5,5.3,1.4c1.6,0.9,2.9,2.1,3.8,3.7c0.9,1.6,1.4,3.3,1.4,5.2
			c0,1.9-0.5,3.6-1.4,5.1c-0.9,1.6-2.2,2.8-3.8,3.7c-1.6,0.9-3.4,1.3-5.3,1.3H237.9z M245,61.5c1.5,0,2.8-0.4,4-1.1
			c1.2-0.7,2.2-1.7,2.9-2.9c0.7-1.2,1.1-2.5,1.1-4c0-1.5-0.4-2.8-1.1-4c-0.7-1.2-1.7-2.2-2.9-2.9c-1.2-0.7-2.6-1.1-4.1-1.1h-4.6
			v15.9H245z"/>
		<path class="st0" d="M262.7,63.7V43.4h14.2v2.3H265v6.6h9.7v2.2H265v7h12v2.3H262.7z M270.2,41.8l2.8-3.1h-2.6l-2,3.1H270.2z"/>
	</g>
</g>
</svg>
